<?xml version="1.0" ?><!DOCTYPE svg  PUBLIC '-//W3C//DTD SVG 1.1//EN'  'http://www.w3.org/Graphics/SVG/1.1/DTD/svg11.dtd'><svg enable-background="new 0 0 140 140" id="Layer_17" version="1.1" viewBox="0 0 140 140" xml:space="preserve" xmlns="http://www.w3.org/2000/svg" xmlns:xlink="http://www.w3.org/1999/xlink"><g><defs><filter filterUnits="userSpaceOnUse" height="97.071106" id="Adobe_OpacityMaskFilter" width="97.0710449" x="42.9289551" y="42.928894"><feColorMatrix type="matrix" values="1 0 0 0 0  0 1 0 0 0  0 0 1 0 0  0 0 0 1 0"/></filter></defs><mask height="97.071106" id="SVGID_1_" maskUnits="userSpaceOnUse" width="97.0710449" x="42.9289551" y="42.928894"><g filter="url(#Adobe_OpacityMaskFilter)"><radialGradient cx="70" cy="70" gradientTransform="matrix(0.7071068 0.7071068 -0.2721382 0.2721382 39.5522003 1.4528493)" gradientUnits="userSpaceOnUse" id="SVGID_2_" r="106.5634918"><stop offset="0.3" style="stop-color:#FFFFFF"/><stop offset="0.85" style="stop-color:#FFFFFF;stop-opacity:0"/></radialGradient><rect fill="url(#SVGID_2_)" height="140" width="140"/></g></mask><linearGradient gradientUnits="userSpaceOnUse" id="SVGID_3_" x1="69.9999847" x2="140.0000153" y1="69.9999542" y2="139.9999847"><stop offset="0" style="stop-color:#000000;stop-opacity:0.4"/><stop offset="0.8" style="stop-color:#000000;stop-opacity:0"/></linearGradient><polygon fill="url(#SVGID_3_)" mask="url(#SVGID_1_)" points="140,85.8580933    97.0710449,42.928894 42.9289551,97.0710449 85.8580933,140 140,140  "/><defs><filter filterUnits="userSpaceOnUse" height="97.071106" id="Adobe_OpacityMaskFilter_1_" width="97.0710449" x="42.9289551" y="42.928894"><feColorMatrix type="matrix" values="1 0 0 0 0  0 1 0 0 0  0 0 1 0 0  0 0 0 1 0"/></filter></defs><mask height="97.071106" id="SVGID_4_" maskUnits="userSpaceOnUse" width="97.0710449" x="42.9289551" y="42.928894"><g filter="url(#Adobe_OpacityMaskFilter_1_)"><radialGradient cx="70" cy="70" gradientTransform="matrix(0.7071068 0.7071068 -0.3889087 0.3889087 47.7261353 -6.7210855)" gradientUnits="userSpaceOnUse" id="SVGID_5_" r="79.5565872"><stop offset="0.3" style="stop-color:#FFFFFF"/><stop offset="0.85" style="stop-color:#FFFFFF;stop-opacity:0"/></radialGradient><rect fill="url(#SVGID_5_)" height="140" width="140"/></g></mask><linearGradient gradientUnits="userSpaceOnUse" id="SVGID_6_" x1="69.9999847" x2="140.0000153" y1="69.9999542" y2="139.9999847"><stop offset="0" style="stop-color:#507299;stop-opacity:0.6"/><stop offset="0.5" style="stop-color:#507299;stop-opacity:0"/></linearGradient><polygon fill="url(#SVGID_6_)" mask="url(#SVGID_4_)" points="140,85.8580933    97.0710449,42.928894 42.9289551,97.0710449 85.8580933,140 140,140  "/><path d="M90,100H50c-5.5228462,0-10-4.47715-10-10V50c0-5.5228462,4.4771538-10,10-10h40   c5.52285,0,10,4.4771538,10,10v40C100,95.52285,95.52285,100,90,100z" fill="#507299"/><g><defs><path d="M90,41c4.9626236,0,9,4.0373802,9,9v40c0,4.9626236-4.0373764,9-9,9H50c-4.9626198,0-9-4.0373764-9-9V50     c0-4.9626198,4.0373802-9,9-9H90 M90,40H50c-5.52285,0-10,4.47715-10,10v40c0,5.52285,4.47715,10,10,10h40     c5.52285,0,10-4.47715,10-10V50C100,44.47715,95.52285,40,90,40L90,40z" id="SVGID_43_"/></defs><clipPath id="SVGID_8_"><use overflow="visible" xlink:href="#SVGID_43_"/></clipPath><linearGradient gradientUnits="userSpaceOnUse" id="SVGID_9_" x1="20" x2="120" y1="20" y2="120"><stop offset="0" style="stop-color:#FFFFFF;stop-opacity:0.8"/><stop offset="0.6" style="stop-color:#FFFFFF;stop-opacity:0"/></linearGradient><rect clip-path="url(#SVGID_8_)" fill="url(#SVGID_9_)" height="100" width="100" x="20" y="20"/></g><g><defs><path d="M90,41c4.9626236,0,9,4.0373802,9,9v40c0,4.9626236-4.0373764,9-9,9H50c-4.9626198,0-9-4.0373764-9-9V50     c0-4.9626198,4.0373802-9,9-9H90 M90,40H50c-5.52285,0-10,4.47715-10,10v40c0,5.52285,4.47715,10,10,10h40     c5.52285,0,10-4.47715,10-10V50C100,44.47715,95.52285,40,90,40L90,40z" id="SVGID_46_"/></defs><clipPath id="SVGID_11_"><use overflow="visible" xlink:href="#SVGID_46_"/></clipPath><linearGradient gradientUnits="userSpaceOnUse" id="SVGID_12_" x1="20" x2="120" y1="20" y2="120"><stop offset="0.4" style="stop-color:#000000;stop-opacity:0"/><stop offset="1" style="stop-color:#000000;stop-opacity:0.2"/></linearGradient><rect clip-path="url(#SVGID_11_)" fill="url(#SVGID_12_)" height="100" width="100" x="20" y="20"/></g><g><defs><path d="M50,99c-4.9624023,0-9-4.0375977-9-9V50c0-4.9624023,4.0375977-9,9-9h40c4.9624023,0,9,4.0375977,9,9v40     c0,4.9624023-4.0375977,9-9,9H50z" id="SVGID_49_"/></defs><clipPath id="SVGID_14_"><use overflow="visible" xlink:href="#SVGID_49_"/></clipPath><radialGradient cx="45" cy="45" gradientUnits="userSpaceOnUse" id="SVGID_15_" r="45"><stop offset="0" style="stop-color:#FFFFFF;stop-opacity:0.2"/><stop offset="1" style="stop-color:#FFFFFF;stop-opacity:0"/></radialGradient><circle clip-path="url(#SVGID_14_)" cx="45" cy="45" fill="url(#SVGID_15_)" r="45"/></g><g><defs><path d="M90,99.1499023H50c-5.0454102,0-9.1499023-4.1044922-9.1499023-9.1499023V50     c0-5.0454102,4.1044922-9.1499023,9.1499023-9.1499023h40c5.0454102,0,9.1499023,4.1044922,9.1499023,9.1499023v40     C99.1499023,95.0454102,95.0454102,99.1499023,90,99.1499023z M50,41.1499023     c-4.8798828,0-8.8500977,3.9702148-8.8500977,8.8500977v40c0,4.8798828,3.9702148,8.8500977,8.8500977,8.8500977h40     c4.8798828,0,8.8500977-3.9702148,8.8500977-8.8500977V50c0-4.8798828-3.9702148-8.8500977-8.8500977-8.8500977H50z" id="SVGID_52_"/></defs><clipPath id="SVGID_17_"><use overflow="visible" xlink:href="#SVGID_52_"/></clipPath><linearGradient gradientUnits="userSpaceOnUse" id="SVGID_18_" x1="20" x2="120" y1="20" y2="120"><stop offset="0.2" style="stop-color:#FFFFFF;stop-opacity:0.8"/><stop offset="0.7" style="stop-color:#FFFFFF;stop-opacity:0"/></linearGradient><rect clip-path="url(#SVGID_17_)" fill="url(#SVGID_18_)" height="100" width="100" x="20" y="20"/></g><path d="M89.7827759,59.9935913l0.1551514,0.2415771l-10.4179077,5.6834717   l-6.59552-6.59552l-9.6402588,0.8766479l5.2230835,5.2230835l0.4683838,5.5632935L58.0681152,60.0785522l-1.9155884,3.9699097   l3.7315674,12.9851685L82.8504639,100H90c5.5228271,0,10-4.4771729,10-10V70.2108154L89.7827759,59.9935913z" opacity="0.12"/><path d="M89.643425,78.9447632c-0.1084595-0.1794434-0.7719116-1.6251831-3.9719238-4.595459   c-3.3497925-3.1089478-2.9007568-2.605957,1.1339722-7.9835815c2.4572144-3.2749634,3.4393921-5.274231,3.1324463-6.1304932   c-0.2924194-0.8157959-2.0998535-0.6003418-2.0998535-0.6003418l-6.0144043,0.0372314c0,0-0.446228-0.06073-0.7766724,0.1370239   c-0.3232422,0.1934204-0.5307007,0.6452637-0.5307007,0.6452637s-0.9523315,2.5340576-2.2214355,4.6895752   c-2.6781616,4.5475464-3.7492065,4.788269-4.1870117,4.5054321c-1.0184937-0.6582031-0.7639771-2.6436768-0.7639771-4.0545654   c0-4.4072876,0.6685181-6.244873-1.3017578-6.72052c-0.6536865-0.1577759-1.1352539-0.262146-2.807312-0.2791748   c-2.1461792-0.0218506-3.9622192,0.0065918-4.9907227,0.510437c-0.684269,0.335083-1.2122231,1.081604-0.8905067,1.1245728   c0.397644,0.0529785,1.2977333,0.242981,1.7749062,0.8922729c0.6165161,0.8388062,0.5949707,2.7217407,0.5949707,2.7217407   s0.354248,5.1880493-0.8270874,5.8322754c-0.8106079,0.4420166-1.9227943-0.4602661-4.3105507-4.5861816   c-1.2231445-2.1133423-2.1470337-4.449646-2.1470337-4.449646s-0.1778564-0.4365234-0.4956665-0.6702271   c-0.385376-0.2830811-0.9238281-0.3728027-0.9238281-0.3728027l-5.7155151,0.0372925c0,0-0.8578491,0.0239868-1.1730347,0.3970947   c-0.2804565,0.3321533-0.0223999,1.0182495-0.0223999,1.0182495s4.4743042,10.4684448,9.5410767,15.7439575   c4.6463661,4.8374634,9.9214516,4.5200195,9.9214516,4.5200195h2.3908081c0,0,0.7220459-0.0795898,1.0912476-0.4768066   c0.3392944-0.3651123,0.3284302-1.0502319,0.3284302-1.0502319s-0.0467529-3.2080688,1.4418945-3.680481   c1.4681396-0.4656372,3.3529053,3.1004639,5.3504639,4.4718018c1.5106812,1.0374146,2.6586304,0.8103638,2.6586304,0.8103638   l5.3418579-0.074646C88.1741867,81.314209,90.9684372,81.1417847,89.643425,78.9447632z" fill="#FFFFFF"/><path d="M80.1736984,80.5784912c1.5106812,1.0374146,2.6586304,0.8103638,2.6586304,0.8103638   l5.3418579-0.074646c0,0,2.7942505-0.1724243,1.4692383-2.3694458c0,0-0.705925,0.8885727-3.8517609,1.3260727   C82.1439285,80.7781372,80.1736984,80.5784912,80.1736984,80.5784912z" fill="#507299" opacity="0.4"/><path d="M63.1598053,79.5412445c3.4438095,1.9515305,6.4110489,1.7729645,6.4110489,1.7729645   h2.3908081c0,0,0.7220459-0.0795898,1.0912476-0.4768066c0.3392944-0.3651123,0.3284302-1.0502319,0.3284302-1.0502319   s-1.2146759,0.5461655-4.50634,0.5669937C65.9583893,80.3726273,63.1598053,79.5412445,63.1598053,79.5412445z" fill="#507299" opacity="0.4"/></g></svg>